<svg width="40" height="40" xmlns="http://www.w3.org/2000/svg">
 <g id="Layer_1">
  <title>Layer 1</title>
  <path id="svg_2" d="m-11.1948,-44.07693c-0.3148,0 -0.57,0.2552 -0.57,0.57c0,0.3148 0.2552,0.57 0.57,0.57c0.3148,0 0.57,-0.2552 0.57,-0.57c0,-0.3148 -0.2552,-0.57 -0.57,-0.57zm-0.09157,0.95141l-0.13869,-0.13881l0.24265,-0.24263l-0.24265,-0.24263l0.13869,-0.13869l0.38136,0.38132l-0.38136,0.38144z" stroke="#000" fill="#000000"/>
  <path id="svg_3" d="m20.16628,2c-10.03293,0 -18.16628,8.13335 -18.16628,18.16629c0,10.0329 8.13335,18.16628 18.16628,18.16628c10.03293,0 18.16627,-8.13338 18.16627,-18.16628c0,-10.03294 -8.13334,-18.16629 -18.16627,-18.16629zm-2.91852,30.32197l-4.41999,-4.42384l7.7333,-7.73281l-7.7333,-7.73281l4.41999,-4.42001l12.15422,12.15282l-12.15422,12.15665z" stroke="#000" fill="#000000"/>
 </g>
</svg>